<mxfile host="app.diagrams.net" modified="2023-11-05T03:57:16.410Z" agent="Mozilla/5.0 (Windows NT 10.0; Win64; x64) AppleWebKit/537.36 (KHTML, like Gecko) Chrome/116.0.0.0 Safari/537.36 OPR/102.0.0.0" etag="RDp46KUgIMKZnA-3eMPp" version="22.0.8" type="github">
  <diagram name="Página-1" id="T0-vbMG73sq1lB9JLtOu">
    <mxGraphModel dx="1919" dy="965" grid="0" gridSize="10" guides="1" tooltips="1" connect="1" arrows="1" fold="1" page="0" pageScale="1" pageWidth="827" pageHeight="1169" math="0" shadow="0">
      <root>
        <mxCell id="0" />
        <mxCell id="1" parent="0" />
        <mxCell id="H5piIwi7xyB4hDqtzY4R-3" style="edgeStyle=orthogonalEdgeStyle;rounded=0;orthogonalLoop=1;jettySize=auto;html=1;exitX=1;exitY=0.5;exitDx=0;exitDy=0;" edge="1" parent="1" source="H5piIwi7xyB4hDqtzY4R-1" target="H5piIwi7xyB4hDqtzY4R-2">
          <mxGeometry relative="1" as="geometry" />
        </mxCell>
        <mxCell id="H5piIwi7xyB4hDqtzY4R-1" value="Usuário" style="ellipse;whiteSpace=wrap;html=1;" vertex="1" parent="1">
          <mxGeometry x="20" y="110" width="120" height="80" as="geometry" />
        </mxCell>
        <mxCell id="H5piIwi7xyB4hDqtzY4R-5" style="edgeStyle=orthogonalEdgeStyle;rounded=0;orthogonalLoop=1;jettySize=auto;html=1;exitX=0.5;exitY=1;exitDx=0;exitDy=0;entryX=0.5;entryY=0;entryDx=0;entryDy=0;" edge="1" parent="1" source="H5piIwi7xyB4hDqtzY4R-2" target="H5piIwi7xyB4hDqtzY4R-4">
          <mxGeometry relative="1" as="geometry" />
        </mxCell>
        <mxCell id="H5piIwi7xyB4hDqtzY4R-2" value="Realizar Login" style="rounded=1;whiteSpace=wrap;html=1;" vertex="1" parent="1">
          <mxGeometry x="270" y="120" width="120" height="60" as="geometry" />
        </mxCell>
        <mxCell id="H5piIwi7xyB4hDqtzY4R-29" style="edgeStyle=orthogonalEdgeStyle;rounded=0;orthogonalLoop=1;jettySize=auto;html=1;exitX=0;exitY=0.5;exitDx=0;exitDy=0;entryX=1;entryY=0.5;entryDx=0;entryDy=0;" edge="1" parent="1" source="H5piIwi7xyB4hDqtzY4R-4" target="H5piIwi7xyB4hDqtzY4R-10">
          <mxGeometry relative="1" as="geometry" />
        </mxCell>
        <mxCell id="H5piIwi7xyB4hDqtzY4R-30" style="edgeStyle=orthogonalEdgeStyle;rounded=0;orthogonalLoop=1;jettySize=auto;html=1;exitX=0;exitY=0.5;exitDx=0;exitDy=0;entryX=1;entryY=0.5;entryDx=0;entryDy=0;" edge="1" parent="1" source="H5piIwi7xyB4hDqtzY4R-4" target="H5piIwi7xyB4hDqtzY4R-9">
          <mxGeometry relative="1" as="geometry" />
        </mxCell>
        <mxCell id="H5piIwi7xyB4hDqtzY4R-31" value="Não" style="edgeLabel;html=1;align=center;verticalAlign=middle;resizable=0;points=[];" vertex="1" connectable="0" parent="H5piIwi7xyB4hDqtzY4R-30">
          <mxGeometry x="-0.8" y="-2" relative="1" as="geometry">
            <mxPoint x="-2" y="-8" as="offset" />
          </mxGeometry>
        </mxCell>
        <mxCell id="H5piIwi7xyB4hDqtzY4R-34" style="edgeStyle=orthogonalEdgeStyle;rounded=0;orthogonalLoop=1;jettySize=auto;html=1;exitX=1;exitY=0.5;exitDx=0;exitDy=0;" edge="1" parent="1" source="H5piIwi7xyB4hDqtzY4R-4">
          <mxGeometry relative="1" as="geometry">
            <mxPoint x="410" y="320" as="targetPoint" />
          </mxGeometry>
        </mxCell>
        <mxCell id="H5piIwi7xyB4hDqtzY4R-35" style="edgeStyle=orthogonalEdgeStyle;rounded=0;orthogonalLoop=1;jettySize=auto;html=1;exitX=1;exitY=0.5;exitDx=0;exitDy=0;entryX=0;entryY=0.5;entryDx=0;entryDy=0;" edge="1" parent="1" source="H5piIwi7xyB4hDqtzY4R-4" target="H5piIwi7xyB4hDqtzY4R-32">
          <mxGeometry relative="1" as="geometry">
            <Array as="points">
              <mxPoint x="390" y="340" />
              <mxPoint x="390" y="400" />
            </Array>
          </mxGeometry>
        </mxCell>
        <mxCell id="H5piIwi7xyB4hDqtzY4R-4" value="Jogar?" style="rhombus;whiteSpace=wrap;html=1;" vertex="1" parent="1">
          <mxGeometry x="290" y="300" width="80" height="80" as="geometry" />
        </mxCell>
        <mxCell id="H5piIwi7xyB4hDqtzY4R-39" style="edgeStyle=orthogonalEdgeStyle;rounded=0;orthogonalLoop=1;jettySize=auto;html=1;exitX=0.5;exitY=0;exitDx=0;exitDy=0;entryX=0;entryY=0.5;entryDx=0;entryDy=0;" edge="1" parent="1" source="H5piIwi7xyB4hDqtzY4R-6" target="H5piIwi7xyB4hDqtzY4R-18">
          <mxGeometry relative="1" as="geometry" />
        </mxCell>
        <mxCell id="H5piIwi7xyB4hDqtzY4R-6" value="Escolher qual símbolo quer, entre X e O, ou deixar que o computador escolha (o outro jogador ficará com o que sobrar)" style="rounded=1;whiteSpace=wrap;html=1;" vertex="1" parent="1">
          <mxGeometry x="570" y="370" width="120" height="90" as="geometry" />
        </mxCell>
        <mxCell id="H5piIwi7xyB4hDqtzY4R-9" value="Scoreboard" style="rounded=1;whiteSpace=wrap;html=1;" vertex="1" parent="1">
          <mxGeometry x="50" y="370" width="120" height="60" as="geometry" />
        </mxCell>
        <mxCell id="H5piIwi7xyB4hDqtzY4R-10" value="Sair do jogo" style="rounded=1;whiteSpace=wrap;html=1;" vertex="1" parent="1">
          <mxGeometry x="50" y="250" width="120" height="60" as="geometry" />
        </mxCell>
        <mxCell id="H5piIwi7xyB4hDqtzY4R-14" value="B1" style="html=1;dashed=0;whiteSpace=wrap;shape=mxgraph.dfd.dataStoreID;align=left;spacingLeft=3;points=[[0,0],[0.5,0],[1,0],[0,0.5],[1,0.5],[0,1],[0.5,1],[1,1]];" vertex="1" parent="1">
          <mxGeometry x="450" width="100" height="30" as="geometry" />
        </mxCell>
        <mxCell id="H5piIwi7xyB4hDqtzY4R-16" style="edgeStyle=orthogonalEdgeStyle;rounded=0;orthogonalLoop=1;jettySize=auto;html=1;entryX=1;entryY=0.5;entryDx=0;entryDy=0;" edge="1" parent="1" source="H5piIwi7xyB4hDqtzY4R-15" target="H5piIwi7xyB4hDqtzY4R-2">
          <mxGeometry relative="1" as="geometry">
            <Array as="points">
              <mxPoint x="490" y="150" />
            </Array>
          </mxGeometry>
        </mxCell>
        <mxCell id="H5piIwi7xyB4hDqtzY4R-17" value="Nickname" style="edgeLabel;html=1;align=center;verticalAlign=middle;resizable=0;points=[];" vertex="1" connectable="0" parent="H5piIwi7xyB4hDqtzY4R-16">
          <mxGeometry x="-0.6" y="-1" relative="1" as="geometry">
            <mxPoint x="-29" y="6" as="offset" />
          </mxGeometry>
        </mxCell>
        <mxCell id="H5piIwi7xyB4hDqtzY4R-15" value="Dados usuários" style="text;html=1;strokeColor=none;fillColor=none;align=center;verticalAlign=middle;whiteSpace=wrap;rounded=0;" vertex="1" parent="1">
          <mxGeometry x="480" width="60" height="30" as="geometry" />
        </mxCell>
        <mxCell id="H5piIwi7xyB4hDqtzY4R-42" style="edgeStyle=orthogonalEdgeStyle;rounded=0;orthogonalLoop=1;jettySize=auto;html=1;exitX=1;exitY=0.5;exitDx=0;exitDy=0;entryX=0.5;entryY=1;entryDx=0;entryDy=0;" edge="1" parent="1" source="H5piIwi7xyB4hDqtzY4R-18" target="H5piIwi7xyB4hDqtzY4R-21">
          <mxGeometry relative="1" as="geometry" />
        </mxCell>
        <mxCell id="H5piIwi7xyB4hDqtzY4R-44" style="edgeStyle=orthogonalEdgeStyle;rounded=0;orthogonalLoop=1;jettySize=auto;html=1;exitX=1;exitY=0.5;exitDx=0;exitDy=0;entryX=0;entryY=0.5;entryDx=0;entryDy=0;" edge="1" parent="1" source="H5piIwi7xyB4hDqtzY4R-18" target="H5piIwi7xyB4hDqtzY4R-23">
          <mxGeometry relative="1" as="geometry" />
        </mxCell>
        <mxCell id="H5piIwi7xyB4hDqtzY4R-64" style="edgeStyle=orthogonalEdgeStyle;rounded=0;orthogonalLoop=1;jettySize=auto;html=1;exitX=1;exitY=0.5;exitDx=0;exitDy=0;entryX=0;entryY=0.5;entryDx=0;entryDy=0;" edge="1" parent="1" source="H5piIwi7xyB4hDqtzY4R-18" target="H5piIwi7xyB4hDqtzY4R-20">
          <mxGeometry relative="1" as="geometry">
            <Array as="points">
              <mxPoint x="1108" y="340" />
              <mxPoint x="1108" y="415" />
            </Array>
          </mxGeometry>
        </mxCell>
        <mxCell id="H5piIwi7xyB4hDqtzY4R-18" value="Jogar o jogo contra outro usuário (que também fez o login)" style="rounded=1;whiteSpace=wrap;html=1;" vertex="1" parent="1">
          <mxGeometry x="710" y="310" width="120" height="60" as="geometry" />
        </mxCell>
        <mxCell id="H5piIwi7xyB4hDqtzY4R-66" style="edgeStyle=orthogonalEdgeStyle;rounded=0;orthogonalLoop=1;jettySize=auto;html=1;exitX=1;exitY=0.5;exitDx=0;exitDy=0;entryX=0.25;entryY=0;entryDx=0;entryDy=0;" edge="1" parent="1" source="H5piIwi7xyB4hDqtzY4R-20" target="H5piIwi7xyB4hDqtzY4R-15">
          <mxGeometry relative="1" as="geometry" />
        </mxCell>
        <mxCell id="H5piIwi7xyB4hDqtzY4R-68" style="edgeStyle=orthogonalEdgeStyle;rounded=0;orthogonalLoop=1;jettySize=auto;html=1;exitX=1;exitY=0.5;exitDx=0;exitDy=0;entryX=0;entryY=0.5;entryDx=0;entryDy=0;" edge="1" parent="1" source="H5piIwi7xyB4hDqtzY4R-20" target="H5piIwi7xyB4hDqtzY4R-1">
          <mxGeometry relative="1" as="geometry">
            <Array as="points">
              <mxPoint x="1321" y="415" />
              <mxPoint x="1321" y="504" />
              <mxPoint y="504" />
              <mxPoint y="150" />
            </Array>
          </mxGeometry>
        </mxCell>
        <mxCell id="H5piIwi7xyB4hDqtzY4R-70" value="Volta para a tela inicial" style="edgeLabel;html=1;align=center;verticalAlign=middle;resizable=0;points=[];" vertex="1" connectable="0" parent="H5piIwi7xyB4hDqtzY4R-68">
          <mxGeometry x="0.0978" y="-1" relative="1" as="geometry">
            <mxPoint x="123" y="16" as="offset" />
          </mxGeometry>
        </mxCell>
        <mxCell id="H5piIwi7xyB4hDqtzY4R-20" value="Fim de jogo" style="rounded=1;whiteSpace=wrap;html=1;" vertex="1" parent="1">
          <mxGeometry x="1181" y="385" width="120" height="60" as="geometry" />
        </mxCell>
        <mxCell id="H5piIwi7xyB4hDqtzY4R-52" value="" style="edgeStyle=orthogonalEdgeStyle;rounded=0;orthogonalLoop=1;jettySize=auto;html=1;" edge="1" parent="1" source="H5piIwi7xyB4hDqtzY4R-21" target="H5piIwi7xyB4hDqtzY4R-51">
          <mxGeometry relative="1" as="geometry" />
        </mxCell>
        <mxCell id="H5piIwi7xyB4hDqtzY4R-21" value="Pausar" style="rounded=1;whiteSpace=wrap;html=1;" vertex="1" parent="1">
          <mxGeometry x="850" y="180" width="120" height="60" as="geometry" />
        </mxCell>
        <mxCell id="H5piIwi7xyB4hDqtzY4R-65" style="edgeStyle=orthogonalEdgeStyle;rounded=0;orthogonalLoop=1;jettySize=auto;html=1;exitX=1;exitY=0.5;exitDx=0;exitDy=0;entryX=0.25;entryY=0;entryDx=0;entryDy=0;" edge="1" parent="1" source="H5piIwi7xyB4hDqtzY4R-23" target="H5piIwi7xyB4hDqtzY4R-15">
          <mxGeometry relative="1" as="geometry" />
        </mxCell>
        <mxCell id="H5piIwi7xyB4hDqtzY4R-69" value="Dados de pontuação dos usuários sendo atualizados" style="edgeLabel;html=1;align=center;verticalAlign=middle;resizable=0;points=[];" vertex="1" connectable="0" parent="H5piIwi7xyB4hDqtzY4R-65">
          <mxGeometry x="0.4544" y="2" relative="1" as="geometry">
            <mxPoint x="24" y="-13" as="offset" />
          </mxGeometry>
        </mxCell>
        <mxCell id="H5piIwi7xyB4hDqtzY4R-23" value="Desistir" style="rounded=1;whiteSpace=wrap;html=1;" vertex="1" parent="1">
          <mxGeometry x="1181" y="310" width="120" height="60" as="geometry" />
        </mxCell>
        <mxCell id="H5piIwi7xyB4hDqtzY4R-40" style="edgeStyle=orthogonalEdgeStyle;rounded=0;orthogonalLoop=1;jettySize=auto;html=1;exitX=0;exitY=0.5;exitDx=0;exitDy=0;entryX=0.5;entryY=0;entryDx=0;entryDy=0;" edge="1" parent="1" source="H5piIwi7xyB4hDqtzY4R-25" target="H5piIwi7xyB4hDqtzY4R-33">
          <mxGeometry relative="1" as="geometry" />
        </mxCell>
        <mxCell id="H5piIwi7xyB4hDqtzY4R-41" value="ID do jogo" style="edgeLabel;html=1;align=center;verticalAlign=middle;resizable=0;points=[];" vertex="1" connectable="0" parent="H5piIwi7xyB4hDqtzY4R-40">
          <mxGeometry x="0.5248" relative="1" as="geometry">
            <mxPoint x="26" y="4" as="offset" />
          </mxGeometry>
        </mxCell>
        <mxCell id="H5piIwi7xyB4hDqtzY4R-25" value="B2" style="html=1;dashed=0;whiteSpace=wrap;shape=mxgraph.dfd.dataStoreID;align=left;spacingLeft=3;points=[[0,0],[0.5,0],[1,0],[0,0.5],[1,0.5],[0,1],[0.5,1],[1,1]];" vertex="1" parent="1">
          <mxGeometry x="510" y="210" width="100" height="30" as="geometry" />
        </mxCell>
        <mxCell id="H5piIwi7xyB4hDqtzY4R-26" value="Dados jogos" style="text;html=1;strokeColor=none;fillColor=none;align=center;verticalAlign=middle;whiteSpace=wrap;rounded=0;" vertex="1" parent="1">
          <mxGeometry x="540" y="210" width="60" height="30" as="geometry" />
        </mxCell>
        <mxCell id="H5piIwi7xyB4hDqtzY4R-36" style="edgeStyle=orthogonalEdgeStyle;rounded=0;orthogonalLoop=1;jettySize=auto;html=1;exitX=1;exitY=0.5;exitDx=0;exitDy=0;" edge="1" parent="1" source="H5piIwi7xyB4hDqtzY4R-32">
          <mxGeometry relative="1" as="geometry">
            <mxPoint x="570" y="415" as="targetPoint" />
            <Array as="points">
              <mxPoint x="534" y="415" />
            </Array>
          </mxGeometry>
        </mxCell>
        <mxCell id="H5piIwi7xyB4hDqtzY4R-32" value="Novo jogo" style="rounded=1;whiteSpace=wrap;html=1;" vertex="1" parent="1">
          <mxGeometry x="414" y="370" width="120" height="60" as="geometry" />
        </mxCell>
        <mxCell id="H5piIwi7xyB4hDqtzY4R-37" style="edgeStyle=orthogonalEdgeStyle;rounded=0;orthogonalLoop=1;jettySize=auto;html=1;exitX=1;exitY=0.5;exitDx=0;exitDy=0;entryX=0;entryY=0.5;entryDx=0;entryDy=0;" edge="1" parent="1" source="H5piIwi7xyB4hDqtzY4R-33" target="H5piIwi7xyB4hDqtzY4R-18">
          <mxGeometry relative="1" as="geometry">
            <Array as="points">
              <mxPoint x="630" y="320" />
              <mxPoint x="630" y="340" />
            </Array>
          </mxGeometry>
        </mxCell>
        <mxCell id="H5piIwi7xyB4hDqtzY4R-33" value="Continuar uma partida" style="rounded=1;whiteSpace=wrap;html=1;" vertex="1" parent="1">
          <mxGeometry x="414" y="290" width="120" height="60" as="geometry" />
        </mxCell>
        <mxCell id="H5piIwi7xyB4hDqtzY4R-54" style="edgeStyle=orthogonalEdgeStyle;rounded=0;orthogonalLoop=1;jettySize=auto;html=1;entryX=1;entryY=0.5;entryDx=0;entryDy=0;" edge="1" parent="1" source="H5piIwi7xyB4hDqtzY4R-51" target="H5piIwi7xyB4hDqtzY4R-53">
          <mxGeometry relative="1" as="geometry" />
        </mxCell>
        <mxCell id="H5piIwi7xyB4hDqtzY4R-58" value="Sim" style="edgeLabel;html=1;align=center;verticalAlign=middle;resizable=0;points=[];" vertex="1" connectable="0" parent="H5piIwi7xyB4hDqtzY4R-54">
          <mxGeometry x="-0.5333" y="-1" relative="1" as="geometry">
            <mxPoint x="8" y="-9" as="offset" />
          </mxGeometry>
        </mxCell>
        <mxCell id="H5piIwi7xyB4hDqtzY4R-60" style="edgeStyle=orthogonalEdgeStyle;rounded=0;orthogonalLoop=1;jettySize=auto;html=1;exitX=1;exitY=0.5;exitDx=0;exitDy=0;entryX=0.5;entryY=0;entryDx=0;entryDy=0;" edge="1" parent="1" source="H5piIwi7xyB4hDqtzY4R-51" target="H5piIwi7xyB4hDqtzY4R-59">
          <mxGeometry relative="1" as="geometry" />
        </mxCell>
        <mxCell id="H5piIwi7xyB4hDqtzY4R-61" value="Não" style="edgeLabel;html=1;align=center;verticalAlign=middle;resizable=0;points=[];" vertex="1" connectable="0" parent="H5piIwi7xyB4hDqtzY4R-60">
          <mxGeometry x="-0.8571" y="1" relative="1" as="geometry">
            <mxPoint x="5" y="-9" as="offset" />
          </mxGeometry>
        </mxCell>
        <mxCell id="H5piIwi7xyB4hDqtzY4R-51" value="Continuar outra hora?" style="rhombus;whiteSpace=wrap;html=1;" vertex="1" parent="1">
          <mxGeometry x="870" y="50" width="80" height="80" as="geometry" />
        </mxCell>
        <mxCell id="H5piIwi7xyB4hDqtzY4R-56" style="edgeStyle=orthogonalEdgeStyle;rounded=0;orthogonalLoop=1;jettySize=auto;html=1;exitX=0.5;exitY=1;exitDx=0;exitDy=0;entryX=0.25;entryY=0;entryDx=0;entryDy=0;" edge="1" parent="1" source="H5piIwi7xyB4hDqtzY4R-53" target="H5piIwi7xyB4hDqtzY4R-26">
          <mxGeometry relative="1" as="geometry" />
        </mxCell>
        <mxCell id="H5piIwi7xyB4hDqtzY4R-57" value="Salva o jogo e a ID" style="edgeLabel;html=1;align=center;verticalAlign=middle;resizable=0;points=[];" vertex="1" connectable="0" parent="H5piIwi7xyB4hDqtzY4R-56">
          <mxGeometry x="0.4044" y="-2" relative="1" as="geometry">
            <mxPoint x="43" y="-13" as="offset" />
          </mxGeometry>
        </mxCell>
        <mxCell id="H5piIwi7xyB4hDqtzY4R-53" value="ID do jogo é mostrada ao usuário" style="rounded=1;whiteSpace=wrap;html=1;" vertex="1" parent="1">
          <mxGeometry x="630" y="60" width="120" height="60" as="geometry" />
        </mxCell>
        <mxCell id="H5piIwi7xyB4hDqtzY4R-62" style="edgeStyle=orthogonalEdgeStyle;rounded=0;orthogonalLoop=1;jettySize=auto;html=1;exitX=0.5;exitY=1;exitDx=0;exitDy=0;entryX=0;entryY=0.5;entryDx=0;entryDy=0;" edge="1" parent="1" source="H5piIwi7xyB4hDqtzY4R-59" target="H5piIwi7xyB4hDqtzY4R-23">
          <mxGeometry relative="1" as="geometry" />
        </mxCell>
        <mxCell id="H5piIwi7xyB4hDqtzY4R-59" value="Continuar jogando" style="rounded=1;whiteSpace=wrap;html=1;" vertex="1" parent="1">
          <mxGeometry x="1010" y="180" width="120" height="60" as="geometry" />
        </mxCell>
      </root>
    </mxGraphModel>
  </diagram>
</mxfile>
